<svg width="28" height="28" viewBox="0 0 28 28" fill="none" xmlns="http://www.w3.org/2000/svg">
<g clip-path="url(#clip0_1716_188)">
<rect width="28" height="28" fill="#9E9E9E"/>
<path fill-rule="evenodd" clip-rule="evenodd" d="M0 0H28V28H0V0Z" fill="#EEEEEE"/>
<path fill-rule="evenodd" clip-rule="evenodd" d="M1.23249 25.8128H1.15245C1.15245 25.7729 1.13241 25.7127 1.13241 25.6925C1.13241 25.6726 1.13241 25.6327 1.07227 25.6327H0.951992V25.8128H0.891854V25.3921H1.07227C1.15245 25.3921 1.21245 25.4123 1.21245 25.4922C1.21245 25.5523 1.1924 25.5725 1.1725 25.5923C1.19255 25.6125 1.21245 25.6325 1.21245 25.6726V25.7527C1.21245 25.7729 1.21245 25.7729 1.23249 25.7729V25.8128ZM1.15245 25.5124C1.15245 25.4523 1.11236 25.4523 1.09231 25.4523H0.951992V25.5725H1.07227C1.11236 25.5725 1.15245 25.5523 1.15245 25.5124V25.5124ZM1.49309 25.5924C1.49309 25.3522 1.29278 25.1516 1.03218 25.1516C0.791769 25.1516 0.591309 25.3522 0.591309 25.5924C0.591309 25.8529 0.791769 26.0535 1.03218 26.0535C1.29263 26.0534 1.49309 25.8529 1.49309 25.5924ZM1.43295 25.5924C1.43295 25.8129 1.25268 25.9732 1.03218 25.9732C0.81167 25.9732 0.651447 25.8128 0.651447 25.5924C0.651447 25.3921 0.811815 25.2117 1.03218 25.2117C1.25254 25.2117 1.43295 25.3921 1.43295 25.5924ZM26.1207 17.4969C26.1207 18.0981 25.74 18.3783 25.0585 18.3783H23.7563V17.7771H25.0585C25.1788 17.7771 25.2791 17.7572 25.3193 17.7172C25.3592 17.677 25.3993 17.6169 25.3993 17.5368C25.3993 17.4565 25.3594 17.3765 25.3193 17.3365C25.2791 17.2963 25.199 17.2764 25.0787 17.2764C24.4577 17.2562 23.6761 17.2963 23.6761 16.4147C23.6761 16.0138 23.9365 15.5729 24.6379 15.5729H25.9804V16.1741H24.738C24.618 16.1741 24.5376 16.1741 24.4775 16.2141C24.4174 16.2742 24.3774 16.3344 24.3774 16.4346C24.3774 16.5348 24.4376 16.595 24.5176 16.6352C24.5979 16.6551 24.6781 16.6751 24.7783 16.6751H25.1389C25.5196 16.6751 25.7602 16.7552 25.9205 16.8956C26.0405 17.0358 26.1207 17.2164 26.1207 17.4969V17.4969ZM23.2952 16.8956C23.1349 16.7552 22.8943 16.6751 22.5136 16.6751H22.153C22.0529 16.6751 21.9726 16.6549 21.8926 16.6352C21.8122 16.595 21.7524 16.5348 21.7524 16.4346C21.7524 16.3344 21.7723 16.2742 21.8525 16.2141C21.9126 16.1741 21.9927 16.1741 22.1129 16.1741H23.3554V15.5729H22.0129C21.2913 15.5729 21.0508 16.0138 21.0508 16.4147C21.0508 17.2961 21.8324 17.2562 22.4537 17.2764C22.5737 17.2764 22.654 17.2963 22.694 17.3365C22.7339 17.3765 22.7743 17.4565 22.7743 17.5368C22.7743 17.6169 22.7341 17.677 22.694 17.7172C22.6338 17.7572 22.5538 17.7771 22.4335 17.7771H21.131V18.3783H22.4335C23.1147 18.3783 23.4955 18.098 23.4955 17.4969C23.4955 17.2164 23.4155 17.0358 23.2952 16.8956V16.8956ZM20.7302 17.7974H19.1474V17.2363H20.6902V16.6754H19.1474V16.1542H20.7302V15.5732H18.4861V18.3785H20.7302V17.7974ZM17.7645 15.7135C17.544 15.5932 17.2836 15.573 16.9429 15.573H15.4001V18.3783H16.0813V17.3564H16.8028C17.043 17.3564 17.1835 17.3766 17.2837 17.4767C17.404 17.6169 17.404 17.8574 17.404 18.0378V18.3783H18.0651V17.8372C18.0651 17.5768 18.0452 17.4565 17.965 17.3163C17.9049 17.236 17.7849 17.1359 17.6245 17.0758C17.8046 17.0159 18.1055 16.7754 18.1055 16.3344C18.1053 16.0139 17.985 15.8335 17.7645 15.7135V15.7135ZM13.9572 15.573H11.813L10.9513 16.4949L10.1297 15.573H7.42455V18.3783H10.0898L10.9515 17.4565L11.7731 18.3783H13.0756V17.4367H13.9173C14.4983 17.4367 15.0797 17.2764 15.0797 16.4949C15.0795 15.7334 14.4783 15.573 13.9572 15.573ZM17.2234 16.7354C17.1234 16.7754 17.0231 16.7754 16.9029 16.7754L16.0813 16.7956V16.1541H16.9029C17.0231 16.1541 17.1434 16.1541 17.2234 16.2142C17.3038 16.2545 17.3636 16.3345 17.3636 16.4548C17.3636 16.5751 17.3038 16.6753 17.2234 16.7354V16.7354ZM13.9572 16.8756H13.0755V16.1541H13.9572C14.1978 16.1541 14.358 16.2545 14.358 16.4949C14.358 16.7354 14.1976 16.8756 13.9572 16.8756ZM11.3722 16.9757L12.4141 15.8737V18.1381L11.3722 16.9757ZM9.74902 17.7974H8.08578V17.2363H9.56861V16.6754H8.08578V16.1542H9.76907L10.5105 16.9758L9.74902 17.7974V17.7974ZM24.257 13.5491H23.2952L22.0328 11.445V13.5491H20.6703L20.4096 12.9278H19.007L18.7465 13.5491H17.9649C17.6443 13.5491 17.2234 13.4689 16.9832 13.2284C16.7627 12.988 16.6424 12.6674 16.6424 12.1664C16.6424 11.7455 16.7025 11.3648 17.0029 11.0643C17.2033 10.8438 17.5641 10.7437 18.0248 10.7437H18.666V11.3449H18.0248C17.7846 11.3449 17.6441 11.385 17.5039 11.5053C17.3837 11.6256 17.3235 11.8459 17.3235 12.1465C17.3235 12.447 17.3837 12.6675 17.5039 12.8078C17.604 12.9079 17.7846 12.948 17.9647 12.948H18.2654L19.2272 10.7438H20.2292L21.3513 13.3889V10.7437H22.3934L23.5757 12.6874V10.7437H24.2569V13.5491H24.257V13.5491ZM16.3018 10.7437H15.6206V13.5491H16.3018V10.7437V10.7437ZM14.8789 10.864C14.6584 10.7437 14.4182 10.7437 14.0775 10.7437H12.5344V13.5491H13.1956V12.5271H13.917C14.1576 12.5271 14.3179 12.5471 14.418 12.6473C14.5383 12.7877 14.5181 13.0282 14.5181 13.1884V13.5491H15.1992V12.988C15.1992 12.7476 15.1793 12.6273 15.0792 12.487C15.0191 12.4068 14.8988 12.3065 14.7586 12.2466C14.9388 12.1664 15.2396 11.946 15.2396 11.5051C15.2398 11.1845 15.0993 11.0041 14.8789 10.864ZM12.0534 12.9681H10.4904V12.4069H12.0334V11.8259H10.4904V11.3249H12.0534V10.7438H9.80916V13.5493H12.0534V12.9681ZM9.30815 10.7437H8.20605L7.38446 12.6473L6.50272 10.7437H5.42067V13.3887L4.27848 10.7437H3.27661L2.07428 13.5491H2.79565L3.0561 12.9278H4.45875L4.7192 13.5491H6.0819V11.3449L7.06372 13.5491H7.64476L8.62673 11.3449V13.5491H9.30801V10.7437H9.30815ZM20.1693 12.3267L19.7083 11.2246L19.2475 12.3267H20.1693ZM14.358 11.886C14.2579 11.9462 14.1577 11.9462 14.0174 11.9462H13.1956V11.325H14.0172C14.1375 11.325 14.2775 11.325 14.3579 11.3651C14.4379 11.4252 14.4781 11.5054 14.4781 11.6256C14.4781 11.7457 14.4381 11.8458 14.358 11.886V11.886ZM3.29651 12.3267L3.75742 11.2246L4.21834 12.3267H3.29651V12.3267ZM25.9605 1.94666H2.05409V12.0462L2.87569 10.1827H4.61897L4.85952 10.6436V10.1827H6.90349L7.36441 11.1845L7.80528 10.1827H14.3179C14.6183 10.1827 14.8788 10.2428 15.0794 10.403V10.1827H16.8628V10.403C17.1632 10.2427 17.5439 10.1827 17.9849 10.1827H20.5698L20.8104 10.6436V10.1827H22.714L22.9947 10.6436V10.1827H24.8581V14.1103H22.9746L22.6141 13.5092V14.1103H20.2694L20.009 13.4691H19.4276L19.1672 14.1103H17.945C17.464 14.1103 17.1032 13.99 16.8629 13.8699V14.1103H13.9572V13.2085C13.9572 13.0882 13.9372 13.0682 13.857 13.0682H13.7569V14.1101H8.14592V13.6091L7.9456 14.1101H6.76332L6.563 13.6292V14.1101H4.29852L4.05812 13.4689H3.47693L3.21647 14.1101H2.05409V25.9531H25.9605V18.7591C25.7 18.8793 25.3392 18.9395 24.9785 18.9395H23.2351V18.6989C23.0348 18.8594 22.6739 18.9395 22.3334 18.9395H16.8427V18.0378C16.8427 17.9176 16.8228 17.9176 16.7224 17.9176H16.6224V18.9395H14.8188V17.8775C14.5184 18.0176 14.1776 18.0176 13.8771 18.0176H13.6766V18.9395H11.4724L10.9515 18.3382L10.3704 18.9395H6.82331V15.012H10.4303L10.9513 15.613L11.5125 15.012H13.9372C14.2175 15.012 14.6786 15.052 14.8789 15.2523V15.012H17.043C17.2635 15.012 17.6845 15.052 17.9649 15.2523V15.012H21.2312V15.2524C21.4116 15.0921 21.7524 15.0122 22.0528 15.0122H23.8763V15.2524C24.0769 15.1123 24.3572 15.0122 24.7181 15.0122H25.9605V1.94666V1.94666Z" fill="#9E9E9E"/>
</g>
<defs>
<clipPath id="clip0_1716_188">
<rect width="28" height="28" fill="white"/>
</clipPath>
</defs>
</svg>
